<?xml version="1.0" encoding="utf-8" standalone="no"?>
<!DOCTYPE svg PUBLIC "-//W3C//DTD SVG 1.1//EN"
  "http://www.w3.org/Graphics/SVG/1.1/DTD/svg11.dtd">
<svg xmlns:xlink="http://www.w3.org/1999/xlink" width="432pt" height="360pt" viewBox="0 0 432 360" xmlns="http://www.w3.org/2000/svg" version="1.1">
 <metadata>
  <rdf:RDF xmlns:dc="http://purl.org/dc/elements/1.1/" xmlns:cc="http://creativecommons.org/ns#" xmlns:rdf="http://www.w3.org/1999/02/22-rdf-syntax-ns#">
   <cc:Work>
    <dc:type rdf:resource="http://purl.org/dc/dcmitype/StillImage"/>
    <dc:date>2025-03-16T20:45:08.633583</dc:date>
    <dc:format>image/svg+xml</dc:format>
    <dc:creator>
     <cc:Agent>
      <dc:title>Matplotlib v3.10.0, https://matplotlib.org/</dc:title>
     </cc:Agent>
    </dc:creator>
   </cc:Work>
  </rdf:RDF>
 </metadata>
 <defs>
  <style type="text/css">*{stroke-linejoin: round; stroke-linecap: butt}</style>
 </defs>
 <g id="figure_1">
  <g id="patch_1">
   <path d="M 0 360 
L 432 360 
L 432 0 
L 0 0 
z
" style="fill: #ffffff"/>
  </g>
  <g id="axes_1">
   <g id="patch_2">
    <path d="M 54 320.4 
L 388.8 320.4 
L 388.8 43.2 
L 54 43.2 
z
" style="fill: #ffffff"/>
   </g>
   <g id="matplotlib.axis_1">
    <g id="xtick_1">
     <g id="line2d_1">
      <path d="M 69.218182 320.4 
L 69.218182 43.2 
" clip-path="url(#pe956200b05)" style="fill: none; stroke: #b0b0b0; stroke-width: 0.8; stroke-linecap: square"/>
     </g>
     <g id="line2d_2">
      <defs>
       <path id="md5b807c59b" d="M 0 0 
L 0 3.5 
" style="stroke: #000000; stroke-width: 0.8"/>
      </defs>
      <g>
       <use xlink:href="#md5b807c59b" x="69.218182" y="320.4" style="stroke: #000000; stroke-width: 0.8"/>
      </g>
     </g>
     <g id="text_1">
      <!-- 0 -->
      <g transform="translate(66.036932 334.998438) scale(0.1 -0.1)">
       <defs>
        <path id="DejaVuSans-30" d="M 2034 4250 
Q 1547 4250 1301 3770 
Q 1056 3291 1056 2328 
Q 1056 1369 1301 889 
Q 1547 409 2034 409 
Q 2525 409 2770 889 
Q 3016 1369 3016 2328 
Q 3016 3291 2770 3770 
Q 2525 4250 2034 4250 
z
M 2034 4750 
Q 2819 4750 3233 4129 
Q 3647 3509 3647 2328 
Q 3647 1150 3233 529 
Q 2819 -91 2034 -91 
Q 1250 -91 836 529 
Q 422 1150 422 2328 
Q 422 3509 836 4129 
Q 1250 4750 2034 4750 
z
" transform="scale(0.015625)"/>
       </defs>
       <use xlink:href="#DejaVuSans-30"/>
      </g>
     </g>
    </g>
    <g id="xtick_2">
     <g id="line2d_3">
      <path d="M 130.090909 320.4 
L 130.090909 43.2 
" clip-path="url(#pe956200b05)" style="fill: none; stroke: #b0b0b0; stroke-width: 0.8; stroke-linecap: square"/>
     </g>
     <g id="line2d_4">
      <g>
       <use xlink:href="#md5b807c59b" x="130.090909" y="320.4" style="stroke: #000000; stroke-width: 0.8"/>
      </g>
     </g>
     <g id="text_2">
      <!-- 10 -->
      <g transform="translate(123.728409 334.998438) scale(0.1 -0.1)">
       <defs>
        <path id="DejaVuSans-31" d="M 794 531 
L 1825 531 
L 1825 4091 
L 703 3866 
L 703 4441 
L 1819 4666 
L 2450 4666 
L 2450 531 
L 3481 531 
L 3481 0 
L 794 0 
L 794 531 
z
" transform="scale(0.015625)"/>
       </defs>
       <use xlink:href="#DejaVuSans-31"/>
       <use xlink:href="#DejaVuSans-30" transform="translate(63.623047 0)"/>
      </g>
     </g>
    </g>
    <g id="xtick_3">
     <g id="line2d_5">
      <path d="M 190.963636 320.4 
L 190.963636 43.2 
" clip-path="url(#pe956200b05)" style="fill: none; stroke: #b0b0b0; stroke-width: 0.8; stroke-linecap: square"/>
     </g>
     <g id="line2d_6">
      <g>
       <use xlink:href="#md5b807c59b" x="190.963636" y="320.4" style="stroke: #000000; stroke-width: 0.8"/>
      </g>
     </g>
     <g id="text_3">
      <!-- 20 -->
      <g transform="translate(184.601136 334.998438) scale(0.1 -0.1)">
       <defs>
        <path id="DejaVuSans-32" d="M 1228 531 
L 3431 531 
L 3431 0 
L 469 0 
L 469 531 
Q 828 903 1448 1529 
Q 2069 2156 2228 2338 
Q 2531 2678 2651 2914 
Q 2772 3150 2772 3378 
Q 2772 3750 2511 3984 
Q 2250 4219 1831 4219 
Q 1534 4219 1204 4116 
Q 875 4013 500 3803 
L 500 4441 
Q 881 4594 1212 4672 
Q 1544 4750 1819 4750 
Q 2544 4750 2975 4387 
Q 3406 4025 3406 3419 
Q 3406 3131 3298 2873 
Q 3191 2616 2906 2266 
Q 2828 2175 2409 1742 
Q 1991 1309 1228 531 
z
" transform="scale(0.015625)"/>
       </defs>
       <use xlink:href="#DejaVuSans-32"/>
       <use xlink:href="#DejaVuSans-30" transform="translate(63.623047 0)"/>
      </g>
     </g>
    </g>
    <g id="xtick_4">
     <g id="line2d_7">
      <path d="M 251.836364 320.4 
L 251.836364 43.2 
" clip-path="url(#pe956200b05)" style="fill: none; stroke: #b0b0b0; stroke-width: 0.8; stroke-linecap: square"/>
     </g>
     <g id="line2d_8">
      <g>
       <use xlink:href="#md5b807c59b" x="251.836364" y="320.4" style="stroke: #000000; stroke-width: 0.8"/>
      </g>
     </g>
     <g id="text_4">
      <!-- 30 -->
      <g transform="translate(245.473864 334.998438) scale(0.1 -0.1)">
       <defs>
        <path id="DejaVuSans-33" d="M 2597 2516 
Q 3050 2419 3304 2112 
Q 3559 1806 3559 1356 
Q 3559 666 3084 287 
Q 2609 -91 1734 -91 
Q 1441 -91 1130 -33 
Q 819 25 488 141 
L 488 750 
Q 750 597 1062 519 
Q 1375 441 1716 441 
Q 2309 441 2620 675 
Q 2931 909 2931 1356 
Q 2931 1769 2642 2001 
Q 2353 2234 1838 2234 
L 1294 2234 
L 1294 2753 
L 1863 2753 
Q 2328 2753 2575 2939 
Q 2822 3125 2822 3475 
Q 2822 3834 2567 4026 
Q 2313 4219 1838 4219 
Q 1578 4219 1281 4162 
Q 984 4106 628 3988 
L 628 4550 
Q 988 4650 1302 4700 
Q 1616 4750 1894 4750 
Q 2613 4750 3031 4423 
Q 3450 4097 3450 3541 
Q 3450 3153 3228 2886 
Q 3006 2619 2597 2516 
z
" transform="scale(0.015625)"/>
       </defs>
       <use xlink:href="#DejaVuSans-33"/>
       <use xlink:href="#DejaVuSans-30" transform="translate(63.623047 0)"/>
      </g>
     </g>
    </g>
    <g id="xtick_5">
     <g id="line2d_9">
      <path d="M 312.709091 320.4 
L 312.709091 43.2 
" clip-path="url(#pe956200b05)" style="fill: none; stroke: #b0b0b0; stroke-width: 0.8; stroke-linecap: square"/>
     </g>
     <g id="line2d_10">
      <g>
       <use xlink:href="#md5b807c59b" x="312.709091" y="320.4" style="stroke: #000000; stroke-width: 0.8"/>
      </g>
     </g>
     <g id="text_5">
      <!-- 40 -->
      <g transform="translate(306.346591 334.998438) scale(0.1 -0.1)">
       <defs>
        <path id="DejaVuSans-34" d="M 2419 4116 
L 825 1625 
L 2419 1625 
L 2419 4116 
z
M 2253 4666 
L 3047 4666 
L 3047 1625 
L 3713 1625 
L 3713 1100 
L 3047 1100 
L 3047 0 
L 2419 0 
L 2419 1100 
L 313 1100 
L 313 1709 
L 2253 4666 
z
" transform="scale(0.015625)"/>
       </defs>
       <use xlink:href="#DejaVuSans-34"/>
       <use xlink:href="#DejaVuSans-30" transform="translate(63.623047 0)"/>
      </g>
     </g>
    </g>
    <g id="xtick_6">
     <g id="line2d_11">
      <path d="M 373.581818 320.4 
L 373.581818 43.2 
" clip-path="url(#pe956200b05)" style="fill: none; stroke: #b0b0b0; stroke-width: 0.8; stroke-linecap: square"/>
     </g>
     <g id="line2d_12">
      <g>
       <use xlink:href="#md5b807c59b" x="373.581818" y="320.4" style="stroke: #000000; stroke-width: 0.8"/>
      </g>
     </g>
     <g id="text_6">
      <!-- 50 -->
      <g transform="translate(367.219318 334.998438) scale(0.1 -0.1)">
       <defs>
        <path id="DejaVuSans-35" d="M 691 4666 
L 3169 4666 
L 3169 4134 
L 1269 4134 
L 1269 2991 
Q 1406 3038 1543 3061 
Q 1681 3084 1819 3084 
Q 2600 3084 3056 2656 
Q 3513 2228 3513 1497 
Q 3513 744 3044 326 
Q 2575 -91 1722 -91 
Q 1428 -91 1123 -41 
Q 819 9 494 109 
L 494 744 
Q 775 591 1075 516 
Q 1375 441 1709 441 
Q 2250 441 2565 725 
Q 2881 1009 2881 1497 
Q 2881 1984 2565 2268 
Q 2250 2553 1709 2553 
Q 1456 2553 1204 2497 
Q 953 2441 691 2322 
L 691 4666 
z
" transform="scale(0.015625)"/>
       </defs>
       <use xlink:href="#DejaVuSans-35"/>
       <use xlink:href="#DejaVuSans-30" transform="translate(63.623047 0)"/>
      </g>
     </g>
    </g>
    <g id="text_7">
     <!-- Initial total $\mathregular{NO_x}$ ($\mathregular{[\frac{nmol}{mol}]}$ -->
     <g transform="translate(166.2 350.878125) scale(0.1 -0.1)">
      <defs>
       <path id="DejaVuSans-49" d="M 628 4666 
L 1259 4666 
L 1259 0 
L 628 0 
L 628 4666 
z
" transform="scale(0.015625)"/>
       <path id="DejaVuSans-6e" d="M 3513 2113 
L 3513 0 
L 2938 0 
L 2938 2094 
Q 2938 2591 2744 2837 
Q 2550 3084 2163 3084 
Q 1697 3084 1428 2787 
Q 1159 2491 1159 1978 
L 1159 0 
L 581 0 
L 581 3500 
L 1159 3500 
L 1159 2956 
Q 1366 3272 1645 3428 
Q 1925 3584 2291 3584 
Q 2894 3584 3203 3211 
Q 3513 2838 3513 2113 
z
" transform="scale(0.015625)"/>
       <path id="DejaVuSans-69" d="M 603 3500 
L 1178 3500 
L 1178 0 
L 603 0 
L 603 3500 
z
M 603 4863 
L 1178 4863 
L 1178 4134 
L 603 4134 
L 603 4863 
z
" transform="scale(0.015625)"/>
       <path id="DejaVuSans-74" d="M 1172 4494 
L 1172 3500 
L 2356 3500 
L 2356 3053 
L 1172 3053 
L 1172 1153 
Q 1172 725 1289 603 
Q 1406 481 1766 481 
L 2356 481 
L 2356 0 
L 1766 0 
Q 1100 0 847 248 
Q 594 497 594 1153 
L 594 3053 
L 172 3053 
L 172 3500 
L 594 3500 
L 594 4494 
L 1172 4494 
z
" transform="scale(0.015625)"/>
       <path id="DejaVuSans-61" d="M 2194 1759 
Q 1497 1759 1228 1600 
Q 959 1441 959 1056 
Q 959 750 1161 570 
Q 1363 391 1709 391 
Q 2188 391 2477 730 
Q 2766 1069 2766 1631 
L 2766 1759 
L 2194 1759 
z
M 3341 1997 
L 3341 0 
L 2766 0 
L 2766 531 
Q 2569 213 2275 61 
Q 1981 -91 1556 -91 
Q 1019 -91 701 211 
Q 384 513 384 1019 
Q 384 1609 779 1909 
Q 1175 2209 1959 2209 
L 2766 2209 
L 2766 2266 
Q 2766 2663 2505 2880 
Q 2244 3097 1772 3097 
Q 1472 3097 1187 3025 
Q 903 2953 641 2809 
L 641 3341 
Q 956 3463 1253 3523 
Q 1550 3584 1831 3584 
Q 2591 3584 2966 3190 
Q 3341 2797 3341 1997 
z
" transform="scale(0.015625)"/>
       <path id="DejaVuSans-6c" d="M 603 4863 
L 1178 4863 
L 1178 0 
L 603 0 
L 603 4863 
z
" transform="scale(0.015625)"/>
       <path id="DejaVuSans-20" transform="scale(0.015625)"/>
       <path id="DejaVuSans-6f" d="M 1959 3097 
Q 1497 3097 1228 2736 
Q 959 2375 959 1747 
Q 959 1119 1226 758 
Q 1494 397 1959 397 
Q 2419 397 2687 759 
Q 2956 1122 2956 1747 
Q 2956 2369 2687 2733 
Q 2419 3097 1959 3097 
z
M 1959 3584 
Q 2709 3584 3137 3096 
Q 3566 2609 3566 1747 
Q 3566 888 3137 398 
Q 2709 -91 1959 -91 
Q 1206 -91 779 398 
Q 353 888 353 1747 
Q 353 2609 779 3096 
Q 1206 3584 1959 3584 
z
" transform="scale(0.015625)"/>
       <path id="DejaVuSans-4e" d="M 628 4666 
L 1478 4666 
L 3547 763 
L 3547 4666 
L 4159 4666 
L 4159 0 
L 3309 0 
L 1241 3903 
L 1241 0 
L 628 0 
L 628 4666 
z
" transform="scale(0.015625)"/>
       <path id="DejaVuSans-4f" d="M 2522 4238 
Q 1834 4238 1429 3725 
Q 1025 3213 1025 2328 
Q 1025 1447 1429 934 
Q 1834 422 2522 422 
Q 3209 422 3611 934 
Q 4013 1447 4013 2328 
Q 4013 3213 3611 3725 
Q 3209 4238 2522 4238 
z
M 2522 4750 
Q 3503 4750 4090 4092 
Q 4678 3434 4678 2328 
Q 4678 1225 4090 567 
Q 3503 -91 2522 -91 
Q 1538 -91 948 565 
Q 359 1222 359 2328 
Q 359 3434 948 4092 
Q 1538 4750 2522 4750 
z
" transform="scale(0.015625)"/>
       <path id="DejaVuSans-78" d="M 3513 3500 
L 2247 1797 
L 3578 0 
L 2900 0 
L 1881 1375 
L 863 0 
L 184 0 
L 1544 1831 
L 300 3500 
L 978 3500 
L 1906 2253 
L 2834 3500 
L 3513 3500 
z
" transform="scale(0.015625)"/>
       <path id="DejaVuSans-28" d="M 1984 4856 
Q 1566 4138 1362 3434 
Q 1159 2731 1159 2009 
Q 1159 1288 1364 580 
Q 1569 -128 1984 -844 
L 1484 -844 
Q 1016 -109 783 600 
Q 550 1309 550 2009 
Q 550 2706 781 3412 
Q 1013 4119 1484 4856 
L 1984 4856 
z
" transform="scale(0.015625)"/>
       <path id="DejaVuSans-5b" d="M 550 4863 
L 1875 4863 
L 1875 4416 
L 1125 4416 
L 1125 -397 
L 1875 -397 
L 1875 -844 
L 550 -844 
L 550 4863 
z
" transform="scale(0.015625)"/>
       <path id="DejaVuSans-6d" d="M 3328 2828 
Q 3544 3216 3844 3400 
Q 4144 3584 4550 3584 
Q 5097 3584 5394 3201 
Q 5691 2819 5691 2113 
L 5691 0 
L 5113 0 
L 5113 2094 
Q 5113 2597 4934 2840 
Q 4756 3084 4391 3084 
Q 3944 3084 3684 2787 
Q 3425 2491 3425 1978 
L 3425 0 
L 2847 0 
L 2847 2094 
Q 2847 2600 2669 2842 
Q 2491 3084 2119 3084 
Q 1678 3084 1418 2786 
Q 1159 2488 1159 1978 
L 1159 0 
L 581 0 
L 581 3500 
L 1159 3500 
L 1159 2956 
Q 1356 3278 1631 3431 
Q 1906 3584 2284 3584 
Q 2666 3584 2933 3390 
Q 3200 3197 3328 2828 
z
" transform="scale(0.015625)"/>
       <path id="DejaVuSans-5d" d="M 1947 4863 
L 1947 -844 
L 622 -844 
L 622 -397 
L 1369 -397 
L 1369 4416 
L 622 4416 
L 622 4863 
L 1947 4863 
z
" transform="scale(0.015625)"/>
      </defs>
      <use xlink:href="#DejaVuSans-49" transform="translate(0 0.01875)"/>
      <use xlink:href="#DejaVuSans-6e" transform="translate(29.492188 0.01875)"/>
      <use xlink:href="#DejaVuSans-69" transform="translate(92.871094 0.01875)"/>
      <use xlink:href="#DejaVuSans-74" transform="translate(120.654297 0.01875)"/>
      <use xlink:href="#DejaVuSans-69" transform="translate(159.863281 0.01875)"/>
      <use xlink:href="#DejaVuSans-61" transform="translate(187.646484 0.01875)"/>
      <use xlink:href="#DejaVuSans-6c" transform="translate(248.925781 0.01875)"/>
      <use xlink:href="#DejaVuSans-20" transform="translate(276.708984 0.01875)"/>
      <use xlink:href="#DejaVuSans-74" transform="translate(308.496094 0.01875)"/>
      <use xlink:href="#DejaVuSans-6f" transform="translate(347.705078 0.01875)"/>
      <use xlink:href="#DejaVuSans-74" transform="translate(408.886719 0.01875)"/>
      <use xlink:href="#DejaVuSans-61" transform="translate(448.095703 0.01875)"/>
      <use xlink:href="#DejaVuSans-6c" transform="translate(509.375 0.01875)"/>
      <use xlink:href="#DejaVuSans-20" transform="translate(537.158203 0.01875)"/>
      <use xlink:href="#DejaVuSans-4e" transform="translate(568.945312 0.01875)"/>
      <use xlink:href="#DejaVuSans-4f" transform="translate(643.75 0.01875)"/>
      <use xlink:href="#DejaVuSans-78" transform="translate(723.417969 -16.3875) scale(0.7)"/>
      <use xlink:href="#DejaVuSans-20" transform="translate(767.578125 0.01875)"/>
      <use xlink:href="#DejaVuSans-28" transform="translate(799.365234 0.01875)"/>
      <use xlink:href="#DejaVuSans-5b" transform="translate(838.378906 0.01875)"/>
      <use xlink:href="#DejaVuSans-6e" transform="translate(877.392578 44.810938) scale(0.7)"/>
      <use xlink:href="#DejaVuSans-6d" transform="translate(921.757812 44.810938) scale(0.7)"/>
      <use xlink:href="#DejaVuSans-6f" transform="translate(989.946289 44.810938) scale(0.7)"/>
      <use xlink:href="#DejaVuSans-6c" transform="translate(1032.773438 44.810938) scale(0.7)"/>
      <use xlink:href="#DejaVuSans-6d" transform="translate(899.392578 -40.623437) scale(0.7)"/>
      <use xlink:href="#DejaVuSans-6f" transform="translate(967.581055 -40.623437) scale(0.7)"/>
      <use xlink:href="#DejaVuSans-6c" transform="translate(1010.408203 -40.623437) scale(0.7)"/>
      <use xlink:href="#DejaVuSans-5d" transform="translate(1064.72168 0.01875)"/>
      <path d="M 877.392578 18.815625 
L 877.392578 25.065625 
L 1052.22168 25.065625 
L 1052.22168 18.815625 
L 877.392578 18.815625 
z
"/>
     </g>
    </g>
   </g>
   <g id="matplotlib.axis_2">
    <g id="ytick_1">
     <g id="line2d_13">
      <path d="M 54 307.8 
L 388.8 307.8 
" clip-path="url(#pe956200b05)" style="fill: none; stroke: #b0b0b0; stroke-width: 0.8; stroke-linecap: square"/>
     </g>
     <g id="line2d_14">
      <defs>
       <path id="mf9fcffba47" d="M 0 0 
L -3.5 0 
" style="stroke: #000000; stroke-width: 0.8"/>
      </defs>
      <g>
       <use xlink:href="#mf9fcffba47" x="54" y="307.8" style="stroke: #000000; stroke-width: 0.8"/>
      </g>
     </g>
     <g id="text_8">
      <!-- 0.0 -->
      <g transform="translate(31.096875 311.599219) scale(0.1 -0.1)">
       <defs>
        <path id="DejaVuSans-2e" d="M 684 794 
L 1344 794 
L 1344 0 
L 684 0 
L 684 794 
z
" transform="scale(0.015625)"/>
       </defs>
       <use xlink:href="#DejaVuSans-30"/>
       <use xlink:href="#DejaVuSans-2e" transform="translate(63.623047 0)"/>
       <use xlink:href="#DejaVuSans-30" transform="translate(95.410156 0)"/>
      </g>
     </g>
    </g>
    <g id="ytick_2">
     <g id="line2d_15">
      <path d="M 54 272.629773 
L 388.8 272.629773 
" clip-path="url(#pe956200b05)" style="fill: none; stroke: #b0b0b0; stroke-width: 0.8; stroke-linecap: square"/>
     </g>
     <g id="line2d_16">
      <g>
       <use xlink:href="#mf9fcffba47" x="54" y="272.629773" style="stroke: #000000; stroke-width: 0.8"/>
      </g>
     </g>
     <g id="text_9">
      <!-- 2.5 -->
      <g transform="translate(31.096875 276.428992) scale(0.1 -0.1)">
       <use xlink:href="#DejaVuSans-32"/>
       <use xlink:href="#DejaVuSans-2e" transform="translate(63.623047 0)"/>
       <use xlink:href="#DejaVuSans-35" transform="translate(95.410156 0)"/>
      </g>
     </g>
    </g>
    <g id="ytick_3">
     <g id="line2d_17">
      <path d="M 54 237.459546 
L 388.8 237.459546 
" clip-path="url(#pe956200b05)" style="fill: none; stroke: #b0b0b0; stroke-width: 0.8; stroke-linecap: square"/>
     </g>
     <g id="line2d_18">
      <g>
       <use xlink:href="#mf9fcffba47" x="54" y="237.459546" style="stroke: #000000; stroke-width: 0.8"/>
      </g>
     </g>
     <g id="text_10">
      <!-- 5.0 -->
      <g transform="translate(31.096875 241.258765) scale(0.1 -0.1)">
       <use xlink:href="#DejaVuSans-35"/>
       <use xlink:href="#DejaVuSans-2e" transform="translate(63.623047 0)"/>
       <use xlink:href="#DejaVuSans-30" transform="translate(95.410156 0)"/>
      </g>
     </g>
    </g>
    <g id="ytick_4">
     <g id="line2d_19">
      <path d="M 54 202.289319 
L 388.8 202.289319 
" clip-path="url(#pe956200b05)" style="fill: none; stroke: #b0b0b0; stroke-width: 0.8; stroke-linecap: square"/>
     </g>
     <g id="line2d_20">
      <g>
       <use xlink:href="#mf9fcffba47" x="54" y="202.289319" style="stroke: #000000; stroke-width: 0.8"/>
      </g>
     </g>
     <g id="text_11">
      <!-- 7.5 -->
      <g transform="translate(31.096875 206.088538) scale(0.1 -0.1)">
       <defs>
        <path id="DejaVuSans-37" d="M 525 4666 
L 3525 4666 
L 3525 4397 
L 1831 0 
L 1172 0 
L 2766 4134 
L 525 4134 
L 525 4666 
z
" transform="scale(0.015625)"/>
       </defs>
       <use xlink:href="#DejaVuSans-37"/>
       <use xlink:href="#DejaVuSans-2e" transform="translate(63.623047 0)"/>
       <use xlink:href="#DejaVuSans-35" transform="translate(95.410156 0)"/>
      </g>
     </g>
    </g>
    <g id="ytick_5">
     <g id="line2d_21">
      <path d="M 54 167.119092 
L 388.8 167.119092 
" clip-path="url(#pe956200b05)" style="fill: none; stroke: #b0b0b0; stroke-width: 0.8; stroke-linecap: square"/>
     </g>
     <g id="line2d_22">
      <g>
       <use xlink:href="#mf9fcffba47" x="54" y="167.119092" style="stroke: #000000; stroke-width: 0.8"/>
      </g>
     </g>
     <g id="text_12">
      <!-- 10.0 -->
      <g transform="translate(24.734375 170.918311) scale(0.1 -0.1)">
       <use xlink:href="#DejaVuSans-31"/>
       <use xlink:href="#DejaVuSans-30" transform="translate(63.623047 0)"/>
       <use xlink:href="#DejaVuSans-2e" transform="translate(127.246094 0)"/>
       <use xlink:href="#DejaVuSans-30" transform="translate(159.033203 0)"/>
      </g>
     </g>
    </g>
    <g id="ytick_6">
     <g id="line2d_23">
      <path d="M 54 131.948866 
L 388.8 131.948866 
" clip-path="url(#pe956200b05)" style="fill: none; stroke: #b0b0b0; stroke-width: 0.8; stroke-linecap: square"/>
     </g>
     <g id="line2d_24">
      <g>
       <use xlink:href="#mf9fcffba47" x="54" y="131.948866" style="stroke: #000000; stroke-width: 0.8"/>
      </g>
     </g>
     <g id="text_13">
      <!-- 12.5 -->
      <g transform="translate(24.734375 135.748084) scale(0.1 -0.1)">
       <use xlink:href="#DejaVuSans-31"/>
       <use xlink:href="#DejaVuSans-32" transform="translate(63.623047 0)"/>
       <use xlink:href="#DejaVuSans-2e" transform="translate(127.246094 0)"/>
       <use xlink:href="#DejaVuSans-35" transform="translate(159.033203 0)"/>
      </g>
     </g>
    </g>
    <g id="ytick_7">
     <g id="line2d_25">
      <path d="M 54 96.778639 
L 388.8 96.778639 
" clip-path="url(#pe956200b05)" style="fill: none; stroke: #b0b0b0; stroke-width: 0.8; stroke-linecap: square"/>
     </g>
     <g id="line2d_26">
      <g>
       <use xlink:href="#mf9fcffba47" x="54" y="96.778639" style="stroke: #000000; stroke-width: 0.8"/>
      </g>
     </g>
     <g id="text_14">
      <!-- 15.0 -->
      <g transform="translate(24.734375 100.577857) scale(0.1 -0.1)">
       <use xlink:href="#DejaVuSans-31"/>
       <use xlink:href="#DejaVuSans-35" transform="translate(63.623047 0)"/>
       <use xlink:href="#DejaVuSans-2e" transform="translate(127.246094 0)"/>
       <use xlink:href="#DejaVuSans-30" transform="translate(159.033203 0)"/>
      </g>
     </g>
    </g>
    <g id="ytick_8">
     <g id="line2d_27">
      <path d="M 54 61.608412 
L 388.8 61.608412 
" clip-path="url(#pe956200b05)" style="fill: none; stroke: #b0b0b0; stroke-width: 0.8; stroke-linecap: square"/>
     </g>
     <g id="line2d_28">
      <g>
       <use xlink:href="#mf9fcffba47" x="54" y="61.608412" style="stroke: #000000; stroke-width: 0.8"/>
      </g>
     </g>
     <g id="text_15">
      <!-- 17.5 -->
      <g transform="translate(24.734375 65.407631) scale(0.1 -0.1)">
       <use xlink:href="#DejaVuSans-31"/>
       <use xlink:href="#DejaVuSans-37" transform="translate(63.623047 0)"/>
       <use xlink:href="#DejaVuSans-2e" transform="translate(127.246094 0)"/>
       <use xlink:href="#DejaVuSans-35" transform="translate(159.033203 0)"/>
      </g>
     </g>
    </g>
    <g id="text_16">
     <!-- Steady-state $\mathregular{O_3}$ $\mathregular{[\frac{nmol}{mol}]}$ -->
     <g transform="translate(16.534375 236.5) rotate(-90) scale(0.1 -0.1)">
      <defs>
       <path id="DejaVuSans-53" d="M 3425 4513 
L 3425 3897 
Q 3066 4069 2747 4153 
Q 2428 4238 2131 4238 
Q 1616 4238 1336 4038 
Q 1056 3838 1056 3469 
Q 1056 3159 1242 3001 
Q 1428 2844 1947 2747 
L 2328 2669 
Q 3034 2534 3370 2195 
Q 3706 1856 3706 1288 
Q 3706 609 3251 259 
Q 2797 -91 1919 -91 
Q 1588 -91 1214 -16 
Q 841 59 441 206 
L 441 856 
Q 825 641 1194 531 
Q 1563 422 1919 422 
Q 2459 422 2753 634 
Q 3047 847 3047 1241 
Q 3047 1584 2836 1778 
Q 2625 1972 2144 2069 
L 1759 2144 
Q 1053 2284 737 2584 
Q 422 2884 422 3419 
Q 422 4038 858 4394 
Q 1294 4750 2059 4750 
Q 2388 4750 2728 4690 
Q 3069 4631 3425 4513 
z
" transform="scale(0.015625)"/>
       <path id="DejaVuSans-65" d="M 3597 1894 
L 3597 1613 
L 953 1613 
Q 991 1019 1311 708 
Q 1631 397 2203 397 
Q 2534 397 2845 478 
Q 3156 559 3463 722 
L 3463 178 
Q 3153 47 2828 -22 
Q 2503 -91 2169 -91 
Q 1331 -91 842 396 
Q 353 884 353 1716 
Q 353 2575 817 3079 
Q 1281 3584 2069 3584 
Q 2775 3584 3186 3129 
Q 3597 2675 3597 1894 
z
M 3022 2063 
Q 3016 2534 2758 2815 
Q 2500 3097 2075 3097 
Q 1594 3097 1305 2825 
Q 1016 2553 972 2059 
L 3022 2063 
z
" transform="scale(0.015625)"/>
       <path id="DejaVuSans-64" d="M 2906 2969 
L 2906 4863 
L 3481 4863 
L 3481 0 
L 2906 0 
L 2906 525 
Q 2725 213 2448 61 
Q 2172 -91 1784 -91 
Q 1150 -91 751 415 
Q 353 922 353 1747 
Q 353 2572 751 3078 
Q 1150 3584 1784 3584 
Q 2172 3584 2448 3432 
Q 2725 3281 2906 2969 
z
M 947 1747 
Q 947 1113 1208 752 
Q 1469 391 1925 391 
Q 2381 391 2643 752 
Q 2906 1113 2906 1747 
Q 2906 2381 2643 2742 
Q 2381 3103 1925 3103 
Q 1469 3103 1208 2742 
Q 947 2381 947 1747 
z
" transform="scale(0.015625)"/>
       <path id="DejaVuSans-79" d="M 2059 -325 
Q 1816 -950 1584 -1140 
Q 1353 -1331 966 -1331 
L 506 -1331 
L 506 -850 
L 844 -850 
Q 1081 -850 1212 -737 
Q 1344 -625 1503 -206 
L 1606 56 
L 191 3500 
L 800 3500 
L 1894 763 
L 2988 3500 
L 3597 3500 
L 2059 -325 
z
" transform="scale(0.015625)"/>
       <path id="DejaVuSans-2d" d="M 313 2009 
L 1997 2009 
L 1997 1497 
L 313 1497 
L 313 2009 
z
" transform="scale(0.015625)"/>
       <path id="DejaVuSans-73" d="M 2834 3397 
L 2834 2853 
Q 2591 2978 2328 3040 
Q 2066 3103 1784 3103 
Q 1356 3103 1142 2972 
Q 928 2841 928 2578 
Q 928 2378 1081 2264 
Q 1234 2150 1697 2047 
L 1894 2003 
Q 2506 1872 2764 1633 
Q 3022 1394 3022 966 
Q 3022 478 2636 193 
Q 2250 -91 1575 -91 
Q 1294 -91 989 -36 
Q 684 19 347 128 
L 347 722 
Q 666 556 975 473 
Q 1284 391 1588 391 
Q 1994 391 2212 530 
Q 2431 669 2431 922 
Q 2431 1156 2273 1281 
Q 2116 1406 1581 1522 
L 1381 1569 
Q 847 1681 609 1914 
Q 372 2147 372 2553 
Q 372 3047 722 3315 
Q 1072 3584 1716 3584 
Q 2034 3584 2315 3537 
Q 2597 3491 2834 3397 
z
" transform="scale(0.015625)"/>
      </defs>
      <use xlink:href="#DejaVuSans-53" transform="translate(0 0.01875)"/>
      <use xlink:href="#DejaVuSans-74" transform="translate(63.476562 0.01875)"/>
      <use xlink:href="#DejaVuSans-65" transform="translate(102.685547 0.01875)"/>
      <use xlink:href="#DejaVuSans-61" transform="translate(164.208984 0.01875)"/>
      <use xlink:href="#DejaVuSans-64" transform="translate(225.488281 0.01875)"/>
      <use xlink:href="#DejaVuSans-79" transform="translate(288.964844 0.01875)"/>
      <use xlink:href="#DejaVuSans-2d" transform="translate(348.144531 0.01875)"/>
      <use xlink:href="#DejaVuSans-73" transform="translate(384.228516 0.01875)"/>
      <use xlink:href="#DejaVuSans-74" transform="translate(436.328125 0.01875)"/>
      <use xlink:href="#DejaVuSans-61" transform="translate(475.537109 0.01875)"/>
      <use xlink:href="#DejaVuSans-74" transform="translate(536.816406 0.01875)"/>
      <use xlink:href="#DejaVuSans-65" transform="translate(576.025391 0.01875)"/>
      <use xlink:href="#DejaVuSans-20" transform="translate(637.548828 0.01875)"/>
      <use xlink:href="#DejaVuSans-4f" transform="translate(669.335938 0.01875)"/>
      <use xlink:href="#DejaVuSans-33" transform="translate(749.003906 -16.3875) scale(0.7)"/>
      <use xlink:href="#DejaVuSans-20" transform="translate(796.274414 0.01875)"/>
      <use xlink:href="#DejaVuSans-5b" transform="translate(828.061523 0.01875)"/>
      <use xlink:href="#DejaVuSans-6e" transform="translate(867.075195 44.810938) scale(0.7)"/>
      <use xlink:href="#DejaVuSans-6d" transform="translate(911.44043 44.810938) scale(0.7)"/>
      <use xlink:href="#DejaVuSans-6f" transform="translate(979.628906 44.810938) scale(0.7)"/>
      <use xlink:href="#DejaVuSans-6c" transform="translate(1022.456055 44.810938) scale(0.7)"/>
      <use xlink:href="#DejaVuSans-6d" transform="translate(889.075195 -40.623437) scale(0.7)"/>
      <use xlink:href="#DejaVuSans-6f" transform="translate(957.263672 -40.623437) scale(0.7)"/>
      <use xlink:href="#DejaVuSans-6c" transform="translate(1000.09082 -40.623437) scale(0.7)"/>
      <use xlink:href="#DejaVuSans-5d" transform="translate(1054.404297 0.01875)"/>
      <path d="M 867.075195 18.815625 
L 867.075195 25.065625 
L 1041.904297 25.065625 
L 1041.904297 18.815625 
L 867.075195 18.815625 
z
"/>
     </g>
    </g>
   </g>
   <g id="line2d_29">
    <path d="M 69.218182 307.8 
L 75.305455 307.8 
L 81.392727 307.8 
L 87.48 307.8 
L 93.567273 307.8 
L 99.654545 307.8 
L 105.741818 307.8 
L 111.829091 307.8 
L 117.916364 307.8 
L 124.003636 307.8 
L 130.090909 307.8 
L 136.178182 307.8 
L 142.265455 307.8 
L 148.352727 307.8 
L 154.44 307.8 
L 160.527273 307.8 
L 166.614545 307.8 
L 172.701818 307.8 
L 178.789091 307.8 
L 184.876364 307.8 
L 190.963636 307.8 
L 197.050909 307.8 
L 203.138182 307.8 
L 209.225455 307.8 
L 215.312727 307.8 
L 221.4 307.8 
L 227.487273 307.8 
L 233.574545 307.8 
L 239.661818 307.8 
L 245.749091 307.8 
L 251.836364 307.8 
L 257.923636 307.8 
L 264.010909 307.8 
L 270.098182 307.8 
L 276.185455 307.8 
L 282.272727 307.8 
L 288.36 307.8 
L 294.447273 307.8 
L 300.534545 307.8 
L 306.621818 307.8 
L 312.709091 307.8 
L 318.796364 307.8 
L 324.883636 307.8 
L 330.970909 307.8 
L 337.058182 307.8 
L 343.145455 307.8 
L 349.232727 307.8 
L 355.32 307.8 
L 361.407273 307.8 
L 367.494545 307.8 
L 373.581818 307.8 
" clip-path="url(#pe956200b05)" style="fill: none; stroke: #1f77b4; stroke-width: 1.5; stroke-linecap: square"/>
   </g>
   <g id="line2d_30">
    <path d="M 69.218182 307.8 
L 75.305455 294.912506 
L 81.392727 283.768832 
L 87.48 273.8087 
L 93.567273 264.71988 
L 99.654545 256.307214 
L 105.741818 248.439066 
L 111.829091 241.021666 
L 117.916364 233.98542 
L 124.003636 227.276988 
L 130.090909 220.854418 
L 136.178182 214.68401 
L 142.265455 208.738208 
L 148.352727 202.994136 
L 154.44 197.432556 
L 160.527273 192.037106 
L 166.614545 186.793732 
L 172.701818 181.690258 
L 178.789091 176.716048 
L 184.876364 171.861751 
L 190.963636 167.119092 
L 197.050909 162.480706 
L 203.138182 157.940003 
L 209.225455 153.49106 
L 215.312727 149.128528 
L 221.4 144.847561 
L 227.487273 140.643747 
L 233.574545 136.51306 
L 239.661818 132.451811 
L 245.749091 128.456612 
L 251.836364 124.524341 
L 257.923636 120.652115 
L 264.010909 116.837265 
L 270.098182 113.077314 
L 276.185455 109.369957 
L 282.272727 105.713048 
L 288.36 102.104581 
L 294.447273 98.54268 
L 300.534545 95.025589 
L 306.621818 91.551657 
L 312.709091 88.119333 
L 318.796364 84.727158 
L 324.883636 81.373754 
L 330.970909 78.057822 
L 337.058182 74.778133 
L 343.145455 71.533524 
L 349.232727 68.322893 
L 355.32 65.145194 
L 361.407273 61.999434 
L 367.494545 58.884669 
L 373.581818 55.8 
" clip-path="url(#pe956200b05)" style="fill: none; stroke: #ff7f0e; stroke-width: 1.5; stroke-linecap: square"/>
   </g>
   <g id="line2d_31">
    <path d="M 69.218182 307.8 
L 75.305455 301.379941 
L 81.392727 295.922469 
L 87.48 291.161496 
L 93.567273 286.932593 
L 99.654545 283.125901 
L 105.741818 279.663818 
L 111.829091 276.489192 
L 117.916364 273.558533 
L 124.003636 270.837876 
L 130.090909 268.30012 
L 136.178182 265.923247 
L 142.265455 263.689097 
L 148.352727 261.582495 
L 154.44 259.590616 
L 160.527273 257.702512 
L 166.614545 255.908756 
L 172.701818 254.201167 
L 178.789091 252.572593 
L 184.876364 251.016745 
L 190.963636 249.52806 
L 197.050909 248.101592 
L 203.138182 246.732921 
L 209.225455 245.418081 
L 215.312727 244.1535 
L 221.4 242.935946 
L 227.487273 241.762486 
L 233.574545 240.630454 
L 239.661818 239.53741 
L 245.749091 238.481123 
L 251.836364 237.459546 
L 257.923636 236.470793 
L 264.010909 235.513125 
L 270.098182 234.584935 
L 276.185455 233.684735 
L 282.272727 232.811141 
L 288.36 231.96287 
L 294.447273 231.138725 
L 300.534545 230.337589 
L 306.621818 229.55842 
L 312.709091 228.800241 
L 318.796364 228.062137 
L 324.883636 227.34325 
L 330.970909 226.642773 
L 337.058182 225.959948 
L 343.145455 225.294059 
L 349.232727 224.644432 
L 355.32 224.010432 
L 361.407273 223.391455 
L 367.494545 222.786935 
L 373.581818 222.196331 
" clip-path="url(#pe956200b05)" style="fill: none; stroke: #2ca02c; stroke-width: 1.5; stroke-linecap: square"/>
   </g>
   <g id="patch_3">
    <path d="M 54 320.4 
L 54 43.2 
" style="fill: none; stroke: #000000; stroke-width: 0.8; stroke-linejoin: miter; stroke-linecap: square"/>
   </g>
   <g id="patch_4">
    <path d="M 388.8 320.4 
L 388.8 43.2 
" style="fill: none; stroke: #000000; stroke-width: 0.8; stroke-linejoin: miter; stroke-linecap: square"/>
   </g>
   <g id="patch_5">
    <path d="M 54 320.4 
L 388.8 320.4 
" style="fill: none; stroke: #000000; stroke-width: 0.8; stroke-linejoin: miter; stroke-linecap: square"/>
   </g>
   <g id="patch_6">
    <path d="M 54 43.2 
L 388.8 43.2 
" style="fill: none; stroke: #000000; stroke-width: 0.8; stroke-linejoin: miter; stroke-linecap: square"/>
   </g>
   <g id="legend_1">
    <g id="patch_7">
     <path d="M 61 95.278125 
L 173.8 95.278125 
Q 175.8 95.278125 175.8 93.278125 
L 175.8 50.2 
Q 175.8 48.2 173.8 48.2 
L 61 48.2 
Q 59 48.2 59 50.2 
L 59 93.278125 
Q 59 95.278125 61 95.278125 
z
" style="fill: #ffffff; opacity: 0.8; stroke: #cccccc; stroke-linejoin: miter"/>
    </g>
    <g id="line2d_32">
     <path d="M 63 56.298437 
L 73 56.298437 
L 83 56.298437 
" style="fill: none; stroke: #1f77b4; stroke-width: 1.5; stroke-linecap: square"/>
    </g>
    <g id="text_17">
     <!-- Initial NO only -->
     <g transform="translate(91 59.798437) scale(0.1 -0.1)">
      <use xlink:href="#DejaVuSans-49"/>
      <use xlink:href="#DejaVuSans-6e" transform="translate(29.492188 0)"/>
      <use xlink:href="#DejaVuSans-69" transform="translate(92.871094 0)"/>
      <use xlink:href="#DejaVuSans-74" transform="translate(120.654297 0)"/>
      <use xlink:href="#DejaVuSans-69" transform="translate(159.863281 0)"/>
      <use xlink:href="#DejaVuSans-61" transform="translate(187.646484 0)"/>
      <use xlink:href="#DejaVuSans-6c" transform="translate(248.925781 0)"/>
      <use xlink:href="#DejaVuSans-20" transform="translate(276.708984 0)"/>
      <use xlink:href="#DejaVuSans-4e" transform="translate(308.496094 0)"/>
      <use xlink:href="#DejaVuSans-4f" transform="translate(383.300781 0)"/>
      <use xlink:href="#DejaVuSans-20" transform="translate(462.011719 0)"/>
      <use xlink:href="#DejaVuSans-6f" transform="translate(493.798828 0)"/>
      <use xlink:href="#DejaVuSans-6e" transform="translate(554.980469 0)"/>
      <use xlink:href="#DejaVuSans-6c" transform="translate(618.359375 0)"/>
      <use xlink:href="#DejaVuSans-79" transform="translate(646.142578 0)"/>
     </g>
    </g>
    <g id="line2d_33">
     <path d="M 63 70.978125 
L 73 70.978125 
L 83 70.978125 
" style="fill: none; stroke: #ff7f0e; stroke-width: 1.5; stroke-linecap: square"/>
    </g>
    <g id="text_18">
     <!-- Initial $\mathregular{NO_2}$ only -->
     <g transform="translate(91 74.478125) scale(0.1 -0.1)">
      <use xlink:href="#DejaVuSans-49" transform="translate(0 0.015625)"/>
      <use xlink:href="#DejaVuSans-6e" transform="translate(29.492188 0.015625)"/>
      <use xlink:href="#DejaVuSans-69" transform="translate(92.871094 0.015625)"/>
      <use xlink:href="#DejaVuSans-74" transform="translate(120.654297 0.015625)"/>
      <use xlink:href="#DejaVuSans-69" transform="translate(159.863281 0.015625)"/>
      <use xlink:href="#DejaVuSans-61" transform="translate(187.646484 0.015625)"/>
      <use xlink:href="#DejaVuSans-6c" transform="translate(248.925781 0.015625)"/>
      <use xlink:href="#DejaVuSans-20" transform="translate(276.708984 0.015625)"/>
      <use xlink:href="#DejaVuSans-4e" transform="translate(308.496094 0.015625)"/>
      <use xlink:href="#DejaVuSans-4f" transform="translate(383.300781 0.015625)"/>
      <use xlink:href="#DejaVuSans-32" transform="translate(462.96875 -16.390625) scale(0.7)"/>
      <use xlink:href="#DejaVuSans-20" transform="translate(510.239258 0.015625)"/>
      <use xlink:href="#DejaVuSans-6f" transform="translate(542.026367 0.015625)"/>
      <use xlink:href="#DejaVuSans-6e" transform="translate(603.208008 0.015625)"/>
      <use xlink:href="#DejaVuSans-6c" transform="translate(666.586914 0.015625)"/>
      <use xlink:href="#DejaVuSans-79" transform="translate(694.370117 0.015625)"/>
     </g>
    </g>
    <g id="line2d_34">
     <path d="M 63 85.678125 
L 73 85.678125 
L 83 85.678125 
" style="fill: none; stroke: #2ca02c; stroke-width: 1.5; stroke-linecap: square"/>
    </g>
    <g id="text_19">
     <!-- Equal NO &amp; $\mathregular{NO_2}$ -->
     <g transform="translate(91 89.178125) scale(0.1 -0.1)">
      <defs>
       <path id="DejaVuSans-45" d="M 628 4666 
L 3578 4666 
L 3578 4134 
L 1259 4134 
L 1259 2753 
L 3481 2753 
L 3481 2222 
L 1259 2222 
L 1259 531 
L 3634 531 
L 3634 0 
L 628 0 
L 628 4666 
z
" transform="scale(0.015625)"/>
       <path id="DejaVuSans-71" d="M 947 1747 
Q 947 1113 1208 752 
Q 1469 391 1925 391 
Q 2381 391 2643 752 
Q 2906 1113 2906 1747 
Q 2906 2381 2643 2742 
Q 2381 3103 1925 3103 
Q 1469 3103 1208 2742 
Q 947 2381 947 1747 
z
M 2906 525 
Q 2725 213 2448 61 
Q 2172 -91 1784 -91 
Q 1150 -91 751 415 
Q 353 922 353 1747 
Q 353 2572 751 3078 
Q 1150 3584 1784 3584 
Q 2172 3584 2448 3432 
Q 2725 3281 2906 2969 
L 2906 3500 
L 3481 3500 
L 3481 -1331 
L 2906 -1331 
L 2906 525 
z
" transform="scale(0.015625)"/>
       <path id="DejaVuSans-75" d="M 544 1381 
L 544 3500 
L 1119 3500 
L 1119 1403 
Q 1119 906 1312 657 
Q 1506 409 1894 409 
Q 2359 409 2629 706 
Q 2900 1003 2900 1516 
L 2900 3500 
L 3475 3500 
L 3475 0 
L 2900 0 
L 2900 538 
Q 2691 219 2414 64 
Q 2138 -91 1772 -91 
Q 1169 -91 856 284 
Q 544 659 544 1381 
z
M 1991 3584 
L 1991 3584 
z
" transform="scale(0.015625)"/>
       <path id="DejaVuSans-26" d="M 1556 2509 
Q 1272 2256 1139 2004 
Q 1006 1753 1006 1478 
Q 1006 1022 1337 719 
Q 1669 416 2169 416 
Q 2466 416 2725 514 
Q 2984 613 3213 813 
L 1556 2509 
z
M 1997 2859 
L 3584 1234 
Q 3769 1513 3872 1830 
Q 3975 2147 3994 2503 
L 4575 2503 
Q 4538 2091 4375 1687 
Q 4213 1284 3922 891 
L 4794 0 
L 4006 0 
L 3559 459 
Q 3234 181 2878 45 
Q 2522 -91 2113 -91 
Q 1359 -91 881 339 
Q 403 769 403 1441 
Q 403 1841 612 2192 
Q 822 2544 1241 2853 
Q 1091 3050 1012 3245 
Q 934 3441 934 3628 
Q 934 4134 1281 4442 
Q 1628 4750 2203 4750 
Q 2463 4750 2720 4694 
Q 2978 4638 3244 4525 
L 3244 3956 
Q 2972 4103 2725 4179 
Q 2478 4256 2266 4256 
Q 1938 4256 1733 4082 
Q 1528 3909 1528 3634 
Q 1528 3475 1620 3314 
Q 1713 3153 1997 2859 
z
" transform="scale(0.015625)"/>
      </defs>
      <use xlink:href="#DejaVuSans-45" transform="translate(0 0.015625)"/>
      <use xlink:href="#DejaVuSans-71" transform="translate(63.183594 0.015625)"/>
      <use xlink:href="#DejaVuSans-75" transform="translate(126.660156 0.015625)"/>
      <use xlink:href="#DejaVuSans-61" transform="translate(190.039062 0.015625)"/>
      <use xlink:href="#DejaVuSans-6c" transform="translate(251.318359 0.015625)"/>
      <use xlink:href="#DejaVuSans-20" transform="translate(279.101562 0.015625)"/>
      <use xlink:href="#DejaVuSans-4e" transform="translate(310.888672 0.015625)"/>
      <use xlink:href="#DejaVuSans-4f" transform="translate(385.693359 0.015625)"/>
      <use xlink:href="#DejaVuSans-20" transform="translate(464.404297 0.015625)"/>
      <use xlink:href="#DejaVuSans-26" transform="translate(496.191406 0.015625)"/>
      <use xlink:href="#DejaVuSans-20" transform="translate(574.169922 0.015625)"/>
      <use xlink:href="#DejaVuSans-4e" transform="translate(605.957031 0.015625)"/>
      <use xlink:href="#DejaVuSans-4f" transform="translate(680.761719 0.015625)"/>
      <use xlink:href="#DejaVuSans-32" transform="translate(760.429688 -16.390625) scale(0.7)"/>
     </g>
    </g>
   </g>
  </g>
 </g>
 <defs>
  <clipPath id="pe956200b05">
   <rect x="54" y="43.2" width="334.8" height="277.2"/>
  </clipPath>
 </defs>
</svg>
